{
  "accessors": [
    {
      "bufferView": 2,
      "componentType": 5126,
      "count": 1959,
      "max": [
        6.0234999656677246,
        0.67180001735687256,
        6.0043001174926758
      ],
      "min": [
        -5.9850997924804688,
        -0.38769999146461487,
        -6.0043001174926758
      ],
      "type": "VEC3"
    },
    {
      "bufferView": 2,
      "byteOffset": 23508,
      "componentType": 5126,
      "count": 1959,
      "max": [
        0.98701918125152588,
        1,
        0.98711657524108887
      ],
      "min": [
        -0.98701918125152588,
        -1,
        -0.98711657524108887
      ],
      "type": "VEC3"
    },
    {
      "bufferView": 3,
      "componentType": 5126,
      "count": 1959,
      "max": [
        1,
        1,
        0.99996423721313477,
        1
      ],
      "min": [
        -1,
        -1,
        -0.99996417760848999,
        1
      ],
      "type": "VEC4"
    },
    {
      "bufferView": 1,
      "componentType": 5126,
      "count": 1959,
      "max": [
        0.93500000238418579,
        0.99409997463226318
      ],
      "min": [
        0.0054999999701976776,
        0.0087000001221895218
      ],
      "type": "VEC2"
    },
    {
      "bufferView": 1,
      "byteOffset": 15672,
      "componentType": 5126,
      "count": 1959,
      "max": [
        0.93500000238418579,
        0.99409997463226318
      ],
      "min": [
        0.0054999999701976776,
        0.0087000001221895218
      ],
      "type": "VEC2"
    },
    {
      "bufferView": 1,
      "byteOffset": 31344,
      "componentType": 5126,
      "count": 1959,
      "max": [
        0.93500000238418579,
        0.99409997463226318
      ],
      "min": [
        0.0054999999701976776,
        0.0087000001221895218
      ],
      "type": "VEC2"
    },
    {
      "bufferView": 1,
      "byteOffset": 47016,
      "componentType": 5126,
      "count": 1959,
      "max": [
        0.93500000238418579,
        0.99409997463226318
      ],
      "min": [
        0.0054999999701976776,
        0.0087000001221895218
      ],
      "type": "VEC2"
    },
    {
      "bufferView": 0,
      "componentType": 5125,
      "count": 8538,
      "max": [
        1958
      ],
      "min": [
        0
      ],
      "type": "SCALAR"
    }
  ],
  "asset": {
    "extras": {
      "author": "plaggy (https://sketchfab.com/plaggy)",
      "license": "CC-BY-4.0 (http://creativecommons.org/licenses/by/4.0/)",
      "source": "https://sketchfab.com/3d-models/cc0-wall-clock-3-8c95c5e879f24f8294d9c8c25804ab95",
      "title": "CC0 - Wall Clock 3"
    },
    "generator": "Sketchfab-10.33.1",
    "version": "2.0"
  },
  "bufferViews": [
    {
      "buffer": 0,
      "byteLength": 34152,
      "byteOffset": 0,
      "name": "floatBufferViews",
      "target": 34963
    },
    {
      "buffer": 0,
      "byteLength": 62688,
      "byteOffset": 34152,
      "byteStride": 8,
      "name": "floatBufferViews",
      "target": 34962
    },
    {
      "buffer": 0,
      "byteLength": 47016,
      "byteOffset": 96840,
      "byteStride": 12,
      "name": "floatBufferViews",
      "target": 34962
    },
    {
      "buffer": 0,
      "byteLength": 31344,
      "byteOffset": 143856,
      "byteStride": 16,
      "name": "floatBufferViews",
      "target": 34962
    }
  ],
  "buffers": [
    {
      "byteLength": 175200,
      "uri": "scene.bin"
    }
  ],
  "images": [
    {
      "uri": "textures/WallClock3_baseColor.png"
    },
    {
      "uri": "textures/WallClock3_metallicRoughness.png"
    },
    {
      "uri": "textures/WallClock3_normal.png"
    }
  ],
  "materials": [
    {
      "alphaMode": "BLEND",
      "doubleSided": false,
      "name": "WallClock3",
      "normalTexture": {
        "index": 2,
        "scale": 1,
        "texCoord": 0
      },
      "pbrMetallicRoughness": {
        "baseColorFactor": [
          1,
          1,
          1,
          1
        ],
        "baseColorTexture": {
          "index": 0,
          "texCoord": 0
        },
        "metallicFactor": 1,
        "metallicRoughnessTexture": {
          "index": 1,
          "texCoord": 0
        },
        "roughnessFactor": 1
      }
    }
  ],
  "meshes": [
    {
      "name": "WallClock3_WallClock3_0",
      "primitives": [
        {
          "attributes": {
            "NORMAL": 1,
            "POSITION": 0,
            "TANGENT": 2,
            "TEXCOORD_0": 3,
            "TEXCOORD_1": 4,
            "TEXCOORD_2": 5,
            "TEXCOORD_3": 6
          },
          "indices": 7,
          "material": 0,
          "mode": 4
        }
      ]
    }
  ],
  "nodes": [
    {
      "children": [
        1
      ],
      "name": "RootNode (gltf orientation matrix)",
      "rotation": [
        -0.70710678118654746,
        -0,
        -0,
        0.70710678118654757
      ]
    },
    {
      "children": [
        2
      ],
      "name": "RootNode (model correction matrix)"
    },
    {
      "children": [
        3
      ],
      "matrix": [
        1,
        0,
        0,
        0,
        0,
        0,
        1,
        0,
        0,
        -1,
        0,
        0,
        0,
        0,
        0,
        1
      ],
      "name": "3591266375494020b52a9bf77f651d47.fbx"
    },
    {
      "children": [
        4
      ],
      "name": "RootNode"
    },
    {
      "children": [
        5
      ],
      "matrix": [
        0.025399999693036079,
        0,
        0,
        0,
        0,
        5.6399328969361128e-18,
        -0.025399999693036079,
        0,
        0,
        0.025399999693036079,
        5.6399328969361128e-18,
        0,
        0,
        0,
        0,
        1
      ],
      "name": "WallClock3"
    },
    {
      "mesh": 0,
      "name": "WallClock3_WallClock3_0"
    }
  ],
  "samplers": [
    {
      "magFilter": 9729,
      "minFilter": 9987,
      "wrapS": 10497,
      "wrapT": 10497
    }
  ],
  "scene": 0,
  "scenes": [
    {
      "name": "OSG_Scene",
      "nodes": [
        0
      ]
    }
  ],
  "textures": [
    {
      "sampler": 0,
      "source": 0
    },
    {
      "sampler": 0,
      "source": 1
    },
    {
      "sampler": 0,
      "source": 2
    }
  ]
}

